<?xml version="1.0" encoding="utf-8"?>
<!-- Generator: Adobe Illustrator 25.4.1, SVG Export Plug-In . SVG Version: 6.00 Build 0)  -->
<svg version="1.1" id="Calque_1" xmlns="http://www.w3.org/2000/svg" xmlns:xlink="http://www.w3.org/1999/xlink" x="0px" y="0px"
	 viewBox="0 0 595.28 841.89" style="enable-background:new 0 0 595.28 841.89;" xml:space="preserve">
<style type="text/css">
	.st0{fill:#F28C47;}
	.st1{fill:#FFFFFF;}
</style>
<g>
	<path class="st0" d="M149.25,457.13c5.88-9,11.72-18.03,17.67-26.99c4.53-6.83,6.57-7.26,13.32-2.83
		c19.16,12.59,38.28,25.24,57.45,37.82c7.18,4.71,9.35,4.38,15.28-2c4.65-5.01,8.93-10.44,14.04-14.93
		c2.47-2.17,6.51-3.71,9.79-3.62c9.22,0.27,18.44,1.33,27.59,2.58c2.19,0.3,5.39,2.25,5.84,4.02c0.55,2.2-0.46,6.04-2.19,7.38
		c-18.14,14.03-36.54,27.72-54.9,41.46c-4.02,3.01-7.71,1.87-11.43-0.94c-18.13-13.68-36.36-27.24-54.52-40.88
		c-9.95-7.47-10.02-7.51-20.01-0.47c-1.44,1.02-2.88,2.03-4.31,3.07c-6.98,5.08-8.72,4.78-13.59-2.37
		C149.25,458.02,149.25,457.57,149.25,457.13z"/>
	<path class="st0" d="M390.71,543.82c-5.08,0-10.17,0.1-15.25-0.03c-5.81-0.14-9.1-2.67-8.47-9.05c2.09-21.23,4.08-42.47,6.09-63.71
		c0.7-7.45,1.51-14.89,1.98-22.35c0.35-5.53-2.47-8.59-8.1-9.15c-25.66-2.59-51.29-5.37-76.96-7.81
		c-8.93-0.85-11.31-3.53-9.44-12.11c4.83-22.1,9.55-44.21,14.47-66.29c1.17-5.27,0.21-9.37-4.17-12.86
		c-6.9-5.5-13.6-11.26-20.3-17.02c-4.11-3.54-8.02-3.61-12.59-0.61c-9.95,6.55-20.09,12.81-30.19,19.13
		c-7.12,4.45-10.22,3.79-14.85-2.99c-4.11-6.01-3.56-8.65,3.22-13.58c14.28-10.38,28.71-20.56,42.89-31.08
		c4.59-3.4,8.58-3.33,13.35-0.53c26.44,15.51,52.92,30.96,79.53,46.17c5.97,3.42,6.51,7.54,3.97,13.19
		c-5.16,11.43-10.23,22.9-15.27,34.38c-4.31,9.83-2.4,13.55,8.02,15.8c18.5,3.99,37,7.94,55.51,11.89
		c8.51,1.81,10.13,4.42,8.03,13.04c-6.97,28.59-13.94,57.18-20.91,85.76c-2.14,8.77-0.29,11.76,8.35,13.63
		c3.22,0.7,6.38,1.71,9.62,2.27c4.11,0.72,6.41,2.92,6.26,7.11c-0.17,4.73-3.48,6.22-7.56,6.69c-0.44,0.05-0.88,0.08-1.32,0.08
		C401.32,543.82,396.02,543.82,390.71,543.82z"/>
	<path class="st0" d="M263.2,559.18c-45.99,0.11-84.94-32-93.44-77.05c-0.16-0.86-0.28-1.75-0.26-2.63
		c0.07-3.55-1.57-8.02,4.09-8.87c5.85-0.88,6.37,3.77,6.98,7.57c3.29,20.72,13.07,37.89,29.33,50.9
		c13.86,11.09,28.67,17.68,44.21,19.36c17.84,1.93,32.15-2.84,39.56-5.98c16.46-6.98,26.43-16.95,29.19-19.92
		c2.14-2.3,11.49-12.65,17.22-29c0,0,7.04-16.19,6.84-36.23s0,0,0,0c-0.22,1.9,0.04-4.22,1.39-5.58c0.95-0.96,2.25-1.13,3.03-1.2
		c4.24-0.38,5.68,1.88,6.14,5.89c0.67,23.38-7.19,76.15-57.63,95.45C292.46,555.06,280.11,559.17,263.2,559.18z"/>
	<path class="st0" d="M384.06,381.77c-4.95-1.3-10.33-2.42-15.5-4.14c-4.37-1.46-5.92-5.09-5.22-9.51c0.27-1.7,0.99-3.36,1.68-4.96
		c5.09-11.79,4-12.32,16.21-6.1c3.37,1.72,8.71,1.96,12.24,0.58c11.68-4.56,22.89-10.27,34.38-15.33c8.68-3.83,15.57,1.11,14,10.21
		c-0.41,2.36-2.57,5.31-4.73,6.34c-15.49,7.41-31.16,14.43-46.83,21.46C388.54,381.11,386.49,381.23,384.06,381.77z"/>
	<path class="st0" d="M262.81,381.36c-26.99,0.57-48.91,11.38-65.91,32.31c-1.55,1.9-3.76,3.91-5.99,4.39
		c-1.46,0.31-4.7-1.81-4.98-3.27c-0.43-2.2,0.39-5.24,1.78-7.09c13.51-17.87,31.22-29.79,53.08-34.73
		c8.92-2.02,18.31-2.13,27.5-2.74c4.06-0.27,8.3,0.23,8,6.13c-0.29,5.65-4.38,5.07-8.18,5
		C266.35,381.34,264.58,381.36,262.81,381.36z"/>
	<path class="st1" d="M299.59,569.49"/>
	<circle class="st0" cx="352.89" cy="290.27" r="30.93"/>
	<g>
		<path d="M171.72,599.71c-6.24,0-10.12-4.07-10.12-10.82s3.92-10.82,10.06-10.82c4.3,0,7.51,1.78,8.69,5.44l-3.98,1.69
			c-0.7-2.55-2.1-3.53-4.52-3.53c-3.5,0-5.7,2.55-5.7,7.23c0,4.65,2.07,7.23,5.6,7.23c2.51,0,4.17-1.21,4.84-3.72l4.04,1.21
			C179.36,597.71,175.99,599.71,171.72,599.71z"/>
		<path d="M202.44,578.39v21.01h-4.39v-8.85h-9.26v8.85h-4.39v-21.01h4.39v8.63h9.26v-8.63H202.44z"/>
		<path d="M216.2,591.34h-3.95v8.05h-4.33v-21.01h9.26c4.77,0,7.64,2.36,7.64,6.49c0,3.02-1.56,5.12-4.3,5.98l5.54,8.53h-4.93
			L216.2,591.34z M212.25,588h4.36c2.55,0,3.72-0.95,3.72-3.06c0-2.1-1.18-3.06-3.72-3.06h-4.36V588z"/>
		<path d="M233.96,599.4h-4.39v-21.01h4.39V599.4z"/>
		<path d="M255.83,582.11l-3.02,2.96c-1.08-2.26-2.83-3.41-5.67-3.41c-2.64,0-3.98,1.11-3.98,2.61c0,1.4,1.15,2.16,4.84,2.83
			c5.67,1.05,7.8,2.8,7.8,6.3c0,3.95-3.6,6.3-8.63,6.3c-4.77,0-7.48-1.37-9.26-3.92l2.61-3.12c1.66,2.74,3.66,3.44,6.49,3.44
			c2.71,0,4.17-0.86,4.17-2.45c0-1.15-1.11-1.81-4.58-2.51c-5.86-1.18-8.08-2.96-8.08-6.46c0-3.72,3.15-6.62,8.59-6.62
			C251.03,578.07,253.7,579.31,255.83,582.11z"/>
		<path d="M271.69,594.27h-8.12l-1.72,5.12h-4.49l7.67-21.01h5.25l7.67,21.01h-4.55L271.69,594.27z M270.6,591.03l-2.01-5.92
			l-0.95-3.18h-0.06l-0.89,3.12l-2.01,5.98H270.6z"/>
		<path d="M296.55,595.86v3.53h-15.47v-21.01h4.39v17.47h11.08V595.86z"/>
		<path d="M325.39,595.86v3.53h-16.2v-21.01h15.76v3.53h-11.36v5.22h8.94v3.37h-8.94v5.35h11.8V595.86z"/>
		<path d="M339.85,599.4h-5.12l-7.67-21.01h4.65l4.42,13.37l1.21,4.14l1.18-4.11l4.46-13.4h4.52L339.85,599.4z"/>
		<path d="M366.88,595.86v3.53h-16.2v-21.01h15.76v3.53h-11.36v5.22h8.94v3.37h-8.94v5.35h11.8V595.86z"/>
		<path d="M388.88,599.4h-5.03l-7.35-12.35l-1.81-3.53h-0.03l0.13,3.72v12.16h-3.95v-21.01h5l7.35,12.32l1.81,3.56h0.06l-0.13-3.72
			v-12.16h3.95V599.4z"/>
		<path d="M410.97,581.92h-7.03v17.47h-4.39v-17.47h-7.07v-3.53h18.49L410.97,581.92L410.97,581.92z"/>
		<path d="M430.36,582.11l-3.02,2.96c-1.08-2.26-2.83-3.41-5.67-3.41c-2.64,0-3.98,1.11-3.98,2.61c0,1.4,1.15,2.16,4.84,2.83
			c5.67,1.05,7.8,2.8,7.8,6.3c0,3.95-3.6,6.3-8.63,6.3c-4.77,0-7.48-1.37-9.26-3.92l2.61-3.12c1.66,2.74,3.66,3.44,6.49,3.44
			c2.71,0,4.17-0.86,4.17-2.45c0-1.15-1.11-1.81-4.58-2.51c-5.86-1.18-8.08-2.96-8.08-6.46c0-3.72,3.15-6.62,8.59-6.62
			C425.55,578.07,428.23,579.31,430.36,582.11z"/>
	</g>
</g>
</svg>
