<?xml version="1.0" encoding="utf-8"?>
<!-- Generator: Adobe Illustrator 25.4.1, SVG Export Plug-In . SVG Version: 6.00 Build 0)  -->
<svg version="1.1" id="Calque_1" xmlns="http://www.w3.org/2000/svg" xmlns:xlink="http://www.w3.org/1999/xlink" x="0px" y="0px"
	 viewBox="0 0 595.28 841.89" style="enable-background:new 0 0 595.28 841.89;" xml:space="preserve">
<style type="text/css">
	.st0{fill:#F28C47;}
	.st1{fill:#FFFFFF;}
</style>
<g>
	<path class="st0" d="M149.25,457.13c5.88-9,11.72-18.03,17.67-26.99c4.53-6.83,6.57-7.26,13.32-2.83
		c19.16,12.59,38.28,25.24,57.45,37.82c7.18,4.71,9.35,4.38,15.28-2c4.65-5.01,8.93-10.44,14.04-14.93
		c2.47-2.17,6.51-3.71,9.79-3.62c9.22,0.27,18.44,1.33,27.59,2.58c2.19,0.3,5.39,2.25,5.84,4.02c0.55,2.2-0.46,6.04-2.19,7.38
		c-18.14,14.03-36.54,27.72-54.9,41.46c-4.02,3.01-7.71,1.87-11.43-0.94c-18.13-13.68-36.36-27.24-54.52-40.88
		c-9.95-7.47-10.02-7.51-20.01-0.47c-1.44,1.02-2.88,2.03-4.31,3.07c-6.98,5.08-8.72,4.78-13.59-2.37
		C149.25,458.02,149.25,457.57,149.25,457.13z"/>
	<path class="st0" d="M390.71,543.82c-5.08,0-10.17,0.1-15.25-0.03c-5.81-0.14-9.1-2.67-8.47-9.05c2.09-21.23,4.08-42.47,6.09-63.71
		c0.7-7.45,1.51-14.89,1.98-22.35c0.35-5.53-2.47-8.59-8.1-9.15c-25.66-2.59-51.29-5.37-76.96-7.81
		c-8.93-0.85-11.31-3.53-9.44-12.11c4.83-22.1,9.55-44.21,14.47-66.29c1.17-5.27,0.21-9.37-4.17-12.86
		c-6.9-5.5-13.6-11.26-20.3-17.02c-4.11-3.54-8.02-3.61-12.59-0.61c-9.95,6.55-20.09,12.81-30.19,19.13
		c-7.12,4.45-10.22,3.79-14.85-2.99c-4.11-6.01-3.56-8.65,3.22-13.58c14.28-10.38,28.71-20.56,42.89-31.08
		c4.59-3.4,8.58-3.33,13.35-0.53c26.44,15.51,52.92,30.96,79.53,46.17c5.97,3.42,6.51,7.54,3.97,13.19
		c-5.16,11.43-10.23,22.9-15.27,34.38c-4.31,9.83-2.4,13.55,8.02,15.8c18.5,3.99,37,7.94,55.51,11.89
		c8.51,1.81,10.13,4.42,8.03,13.04c-6.97,28.59-13.94,57.18-20.91,85.76c-2.14,8.77-0.29,11.76,8.35,13.63
		c3.22,0.7,6.38,1.71,9.62,2.27c4.11,0.72,6.41,2.92,6.26,7.11c-0.17,4.73-3.48,6.22-7.56,6.69c-0.44,0.05-0.88,0.08-1.32,0.08
		C401.32,543.82,396.02,543.82,390.71,543.82z"/>
	<path class="st0" d="M263.2,559.18c-45.99,0.11-84.94-32-93.44-77.05c-0.16-0.86-0.28-1.75-0.26-2.63
		c0.07-3.55-1.57-8.02,4.09-8.87c5.85-0.88,6.37,3.77,6.98,7.57c3.29,20.72,13.07,37.89,29.33,50.9
		c13.86,11.09,28.67,17.68,44.21,19.36c17.84,1.93,32.15-2.84,39.56-5.98c16.46-6.98,26.43-16.95,29.19-19.92
		c2.14-2.3,11.49-12.65,17.22-29c0,0,7.04-16.19,6.84-36.23s0,0,0,0c-0.22,1.9,0.04-4.22,1.39-5.58c0.95-0.96,2.25-1.13,3.03-1.2
		c4.24-0.38,5.68,1.88,6.14,5.89c0.67,23.38-7.19,76.15-57.63,95.45C292.46,555.06,280.11,559.17,263.2,559.18z"/>
	<path class="st0" d="M384.06,381.77c-4.95-1.3-10.33-2.42-15.5-4.14c-4.37-1.46-5.92-5.09-5.22-9.51c0.27-1.7,0.99-3.36,1.68-4.96
		c5.09-11.79,4-12.32,16.21-6.1c3.37,1.72,8.71,1.96,12.24,0.58c11.68-4.56,22.89-10.27,34.38-15.33c8.68-3.83,15.57,1.11,14,10.21
		c-0.41,2.36-2.57,5.31-4.73,6.34c-15.49,7.41-31.16,14.43-46.83,21.46C388.54,381.11,386.49,381.23,384.06,381.77z"/>
	<path class="st0" d="M262.81,381.36c-26.99,0.57-48.91,11.38-65.91,32.31c-1.55,1.9-3.76,3.91-5.99,4.39
		c-1.46,0.31-4.7-1.81-4.98-3.27c-0.43-2.2,0.39-5.24,1.78-7.09c13.51-17.87,31.22-29.79,53.08-34.73
		c8.92-2.02,18.31-2.13,27.5-2.74c4.06-0.27,8.3,0.23,8,6.13c-0.29,5.65-4.38,5.07-8.18,5
		C266.35,381.34,264.58,381.36,262.81,381.36z"/>
	<path class="st1" d="M299.59,569.49"/>
	<circle class="st0" cx="352.89" cy="290.27" r="30.93"/>
	<g>
		<path d="M136.7,600.59c-8.23,0-13.36-5.38-13.36-14.28s5.17-14.28,13.27-14.28c5.67,0,9.91,2.35,11.47,7.18l-5.25,2.23
			c-0.92-3.36-2.77-4.66-5.96-4.66c-4.62,0-7.52,3.36-7.52,9.54c0,6.13,2.73,9.54,7.39,9.54c3.32,0,5.5-1.6,6.38-4.91l5.33,1.6
			C146.78,597.94,142.33,600.59,136.7,600.59z"/>
		<path d="M177.23,572.44v27.72h-5.8v-11.68h-12.22v11.68h-5.8v-27.72h5.8v11.38h12.22v-11.38H177.23z"/>
		<path d="M195.37,589.54h-5.21v10.63h-5.71v-27.72h12.22c6.3,0,10.08,3.11,10.08,8.57c0,3.99-2.06,6.76-5.67,7.9l7.31,11.26h-6.51
			L195.37,589.54z M190.16,585.13h5.75c3.36,0,4.92-1.26,4.92-4.03s-1.55-4.03-4.92-4.03h-5.75V585.13z"/>
		<path d="M218.81,600.17h-5.8v-27.72h5.8V600.17z"/>
		<path d="M247.66,577.36l-3.99,3.91c-1.43-2.98-3.74-4.5-7.48-4.5c-3.49,0-5.25,1.47-5.25,3.45c0,1.85,1.51,2.86,6.39,3.74
			c7.48,1.39,10.29,3.7,10.29,8.32c0,5.21-4.75,8.32-11.38,8.32c-6.3,0-9.87-1.81-12.22-5.17l3.44-4.12
			c2.18,3.61,4.83,4.54,8.57,4.54c3.57,0,5.5-1.13,5.5-3.23c0-1.51-1.47-2.39-6.05-3.32c-7.73-1.55-10.67-3.91-10.67-8.53
			c0-4.92,4.16-8.74,11.34-8.74C241.32,572.02,244.85,573.66,247.66,577.36z"/>
		<path d="M268.58,593.4h-10.71l-2.27,6.76h-5.92l10.12-27.72h6.93l10.12,27.72h-6.01L268.58,593.4z M267.15,589.12l-2.65-7.81
			l-1.26-4.2h-0.08l-1.18,4.12l-2.65,7.9H267.15z"/>
		<path d="M301.38,595.5v4.66h-20.42v-27.72h5.8v23.06H301.38z"/>
		<path d="M339.43,595.5v4.66h-21.38v-27.72h20.79v4.66h-15v6.89h11.8v4.45h-11.8v7.06H339.43z"/>
		<path d="M358.5,600.17h-6.76l-10.12-27.72h6.13l5.84,17.64l1.6,5.46l1.55-5.42l5.88-17.68h5.96L358.5,600.17z"/>
		<path d="M394.16,595.5v4.66h-21.38v-27.72h20.79v4.66h-15v6.89h11.8v4.45h-11.8v7.06H394.16z"/>
		<path d="M423.18,600.17h-6.64l-9.7-16.3l-2.39-4.66h-0.04l0.17,4.92v16.05h-5.21v-27.72h6.6l9.7,16.26l2.39,4.7h0.08l-0.17-4.91
			v-16.05h5.21V600.17z"/>
		<path d="M452.33,577.1h-9.28v23.06h-5.8V577.1h-9.33v-4.66h24.41V577.1z"/>
		<path d="M477.9,577.36l-3.99,3.91c-1.43-2.98-3.74-4.5-7.48-4.5c-3.49,0-5.25,1.47-5.25,3.45c0,1.85,1.51,2.86,6.39,3.74
			c7.48,1.39,10.29,3.7,10.29,8.32c0,5.21-4.75,8.32-11.38,8.32c-6.3,0-9.87-1.81-12.22-5.17l3.44-4.12
			c2.18,3.61,4.83,4.54,8.57,4.54c3.57,0,5.5-1.13,5.5-3.23c0-1.51-1.47-2.39-6.05-3.32c-7.73-1.55-10.67-3.91-10.67-8.53
			c0-4.92,4.16-8.74,11.34-8.74C471.56,572.02,475.09,573.66,477.9,577.36z"/>
	</g>
</g>
</svg>
