<?xml version="1.0" encoding="utf-8"?>
<!-- Generator: Adobe Illustrator 25.4.1, SVG Export Plug-In . SVG Version: 6.00 Build 0)  -->
<svg version="1.1" id="Calque_1" xmlns="http://www.w3.org/2000/svg" xmlns:xlink="http://www.w3.org/1999/xlink" x="0px" y="0px"
	 viewBox="0 0 595.28 841.89" style="enable-background:new 0 0 595.28 841.89;" xml:space="preserve">
<style type="text/css">
	.st0{fill:#FFFFFF;}
	.st1{fill:#F28C47;}
</style>
<g>
	<g>
		<path class="st0" d="M149.25,457.13c0-66.07,0-132.15,0-198.55c66.77,0,133.54,0,200.31,0c-1.17,0.52-2.3,1.24-3.52,1.53
			c-15.65,3.67-25.95,18.22-23.91,33.87c2.02,15.49,15.08,26.65,31.09,26.58c15.53-0.07,28.55-11.45,30.43-26.6
			c1.95-15.76-8.32-30.26-23.93-33.86c-1.23-0.28-2.35-1.01-3.52-1.53c29.18,0,58.37,0,87.55,0c0,100.6,0,201.19,0,301.79
			c-98.16,0-196.33,0-294.49,0c0-33.97,0-67.95,0-101.92c4.87,7.15,6.61,7.45,13.59,2.37c1.43-1.04,2.87-2.06,4.31-3.07
			c10-7.04,10.07-7,20.01,0.47c18.16,13.64,36.38,27.2,54.52,40.88c3.73,2.81,7.42,3.95,11.43,0.94
			c18.36-13.74,36.77-27.43,54.9-41.46c1.73-1.34,2.75-5.18,2.19-7.38c-0.44-1.77-3.64-3.72-5.84-4.02
			c-9.15-1.25-18.37-2.31-27.59-2.58c-3.27-0.1-7.31,1.44-9.79,3.62c-5.11,4.49-9.39,9.91-14.04,14.93c-5.92,6.38-8.1,6.72-15.28,2
			c-19.17-12.58-38.29-25.23-57.45-37.82c-6.75-4.43-8.79-4.01-13.32,2.83C160.97,439.11,155.13,448.14,149.25,457.13z
			 M390.71,543.82c5.3,0,10.61,0,15.91,0c0.44,0,0.88-0.03,1.32-0.08c4.08-0.48,7.4-1.97,7.56-6.69c0.15-4.19-2.15-6.39-6.26-7.11
			c-3.24-0.57-6.4-1.58-9.62-2.27c-8.63-1.87-10.48-4.86-8.35-13.63c6.97-28.59,13.94-57.18,20.91-85.76
			c2.1-8.62,0.48-11.23-8.03-13.04c-18.51-3.95-37.01-7.9-55.51-11.89c-10.42-2.25-12.33-5.97-8.02-15.8
			c5.03-11.49,10.1-22.96,15.27-34.38c2.55-5.64,2.01-9.77-3.97-13.19c-26.61-15.21-53.09-30.66-79.53-46.17
			c-4.77-2.8-8.76-2.87-13.35,0.53c-14.18,10.51-28.61,20.7-42.89,31.08c-6.78,4.93-7.33,7.56-3.22,13.58
			c4.63,6.78,7.74,7.45,14.85,2.99c10.1-6.32,20.24-12.58,30.19-19.13c4.57-3.01,8.47-2.93,12.59,0.61
			c6.69,5.76,13.39,11.52,20.3,17.02c4.38,3.49,5.34,7.59,4.17,12.86c-4.92,22.08-9.65,44.19-14.47,66.29
			c-1.87,8.58,0.51,11.26,9.44,12.11c25.67,2.44,51.31,5.22,76.96,7.81c5.63,0.57,8.45,3.63,8.1,9.15
			c-0.47,7.46-1.27,14.9-1.98,22.35c-2.01,21.24-4,42.48-6.09,63.71c-0.63,6.38,2.66,8.91,8.47,9.05
			C380.54,543.92,385.63,543.82,390.71,543.82z M263.2,559.18c0.15,0.62,0.31,1.24,0.46,1.86c12.09-2.97,24.73-4.56,36.16-9.14
			c40.59-16.28,61.89-57.84,57.63-95.45c-0.45-4.01-1.9-6.26-6.14-5.89c-4.28,0.38-4.32,3.51-4.42,6.77
			c-0.19,6.36-0.06,12.8-1.01,19.06c-4.83,31.85-22.53,54.2-52.25,66.08c-30.21,12.08-58.55,6.8-83.76-13.38
			c-16.26-13.01-26.04-30.18-29.33-50.9c-0.6-3.8-1.13-8.45-6.98-7.57c-5.65,0.85-4.01,5.33-4.09,8.87
			c-0.02,0.87,0.1,1.77,0.26,2.63C178.26,527.18,217.21,559.29,263.2,559.18z M384.06,381.77c2.43-0.54,4.48-0.66,6.23-1.45
			c15.66-7.04,31.34-14.05,46.83-21.46c2.15-1.03,4.32-3.98,4.73-6.34c1.57-9.11-5.31-14.04-14-10.21
			c-11.48,5.06-22.7,10.78-34.38,15.33c-3.53,1.38-8.87,1.14-12.24-0.58c-12.21-6.22-11.11-5.69-16.21,6.1
			c-0.69,1.6-1.42,3.26-1.68,4.96c-0.7,4.43,0.85,8.06,5.22,9.51C373.73,379.36,379.11,380.48,384.06,381.77z M262.81,381.36
			c1.77,0,3.53-0.03,5.3,0.01c3.8,0.06,7.89,0.65,8.18-5c0.3-5.9-3.93-6.39-8-6.13c-9.2,0.61-18.58,0.72-27.5,2.74
			c-21.86,4.94-39.57,16.87-53.08,34.73c-1.4,1.85-2.21,4.89-1.78,7.09c0.28,1.45,3.53,3.58,4.98,3.27
			c2.23-0.48,4.44-2.49,5.99-4.39C213.91,392.74,235.83,381.93,262.81,381.36z"/>
		<path class="st1" d="M149.25,457.13c5.88-9,11.72-18.03,17.67-26.99c4.53-6.83,6.57-7.26,13.32-2.83
			c19.16,12.59,38.28,25.24,57.45,37.82c7.18,4.71,9.35,4.38,15.28-2c4.65-5.01,8.93-10.44,14.04-14.93
			c2.47-2.17,6.51-3.71,9.79-3.62c9.22,0.27,18.44,1.33,27.59,2.58c2.19,0.3,5.39,2.25,5.84,4.02c0.55,2.2-0.46,6.04-2.19,7.38
			c-18.14,14.03-36.54,27.72-54.9,41.46c-4.02,3.01-7.71,1.87-11.43-0.94c-18.13-13.68-36.36-27.24-54.52-40.88
			c-9.95-7.47-10.02-7.51-20.01-0.47c-1.44,1.02-2.88,2.03-4.31,3.07c-6.98,5.08-8.72,4.78-13.59-2.37
			C149.25,458.02,149.25,457.57,149.25,457.13z"/>
		<path class="st1" d="M390.71,543.82c-5.08,0-10.17,0.1-15.25-0.03c-5.81-0.14-9.1-2.67-8.47-9.05
			c2.09-21.23,4.08-42.47,6.09-63.71c0.7-7.45,1.51-14.89,1.98-22.35c0.35-5.53-2.47-8.59-8.1-9.15
			c-25.66-2.59-51.29-5.37-76.96-7.81c-8.93-0.85-11.31-3.53-9.44-12.11c4.83-22.1,9.55-44.21,14.47-66.29
			c1.17-5.27,0.21-9.37-4.17-12.86c-6.9-5.5-13.6-11.26-20.3-17.02c-4.11-3.54-8.02-3.61-12.59-0.61
			c-9.95,6.55-20.09,12.81-30.19,19.13c-7.12,4.45-10.22,3.79-14.85-2.99c-4.11-6.01-3.56-8.65,3.22-13.58
			c14.28-10.38,28.71-20.56,42.89-31.08c4.59-3.4,8.58-3.33,13.35-0.53c26.44,15.51,52.92,30.96,79.53,46.17
			c5.97,3.42,6.51,7.54,3.97,13.19c-5.16,11.43-10.23,22.9-15.27,34.38c-4.31,9.83-2.4,13.55,8.02,15.8
			c18.5,3.99,37,7.94,55.51,11.89c8.51,1.81,10.13,4.42,8.03,13.04c-6.97,28.59-13.94,57.18-20.91,85.76
			c-2.14,8.77-0.29,11.76,8.35,13.63c3.22,0.7,6.38,1.71,9.62,2.27c4.11,0.72,6.41,2.92,6.26,7.11c-0.17,4.73-3.48,6.22-7.56,6.69
			c-0.44,0.05-0.88,0.08-1.32,0.08C401.32,543.82,396.02,543.82,390.71,543.82z"/>
		<path class="st1" d="M263.2,559.18c-45.99,0.11-84.94-32-93.44-77.05c-0.16-0.86-0.28-1.75-0.26-2.63
			c0.07-3.55-1.57-8.02,4.09-8.87c5.85-0.88,6.37,3.77,6.98,7.57c3.29,20.72,13.07,37.89,29.33,50.9
			c13.86,11.09,28.67,17.68,44.21,19.36c17.84,1.93,32.15-2.84,39.56-5.98c16.46-6.98,26.43-16.95,29.19-19.92
			c2.14-2.3,11.49-12.65,17.22-29c0,0,7.04-16.19,6.84-36.23c-0.2-20.04,0,0,0,0c-0.22,1.9,0.04-4.22,1.39-5.58
			c0.95-0.96,2.25-1.13,3.03-1.2c4.24-0.38,5.68,1.88,6.14,5.89c0.67,23.38-7.19,76.15-57.63,95.45
			C292.46,555.06,280.11,559.17,263.2,559.18z"/>
		<path class="st1" d="M384.06,381.77c-4.95-1.3-10.33-2.42-15.5-4.14c-4.37-1.46-5.92-5.09-5.22-9.51c0.27-1.7,0.99-3.36,1.68-4.96
			c5.09-11.79,4-12.32,16.21-6.1c3.37,1.72,8.71,1.96,12.24,0.58c11.68-4.56,22.89-10.27,34.38-15.33c8.68-3.83,15.57,1.11,14,10.21
			c-0.41,2.36-2.57,5.31-4.73,6.34c-15.49,7.41-31.16,14.43-46.83,21.46C388.54,381.11,386.49,381.23,384.06,381.77z"/>
		<path class="st1" d="M262.81,381.36c-26.99,0.57-48.91,11.38-65.91,32.31c-1.55,1.9-3.76,3.91-5.99,4.39
			c-1.46,0.31-4.7-1.81-4.98-3.27c-0.43-2.2,0.39-5.24,1.78-7.09c13.51-17.87,31.22-29.79,53.08-34.73
			c8.92-2.02,18.31-2.13,27.5-2.74c4.06-0.27,8.3,0.23,8,6.13c-0.29,5.65-4.38,5.07-8.18,5
			C266.35,381.34,264.58,381.36,262.81,381.36z"/>
		<path class="st0" d="M299.59,569.49"/>
		<circle class="st1" cx="352.89" cy="290.27" r="30.93"/>
	</g>
	<g>
		<path d="M171.72,599.71c-6.24,0-10.12-4.07-10.12-10.82s3.92-10.82,10.06-10.82c4.3,0,7.51,1.78,8.69,5.44l-3.98,1.69
			c-0.7-2.55-2.1-3.53-4.52-3.53c-3.5,0-5.7,2.55-5.7,7.23c0,4.65,2.07,7.23,5.6,7.23c2.51,0,4.17-1.21,4.84-3.72l4.04,1.21
			C179.36,597.71,175.99,599.71,171.72,599.71z"/>
		<path d="M202.44,578.39v21.01h-4.39v-8.85h-9.26v8.85h-4.39v-21.01h4.39v8.63h9.26v-8.63H202.44z"/>
		<path d="M216.2,591.34h-3.95v8.05h-4.33v-21.01h9.26c4.77,0,7.64,2.36,7.64,6.49c0,3.02-1.56,5.12-4.3,5.98l5.54,8.53h-4.93
			L216.2,591.34z M212.25,588h4.36c2.55,0,3.72-0.95,3.72-3.06c0-2.1-1.18-3.06-3.72-3.06h-4.36V588z"/>
		<path d="M233.96,599.4h-4.39v-21.01h4.39V599.4z"/>
		<path d="M255.83,582.11l-3.02,2.96c-1.08-2.26-2.83-3.41-5.67-3.41c-2.64,0-3.98,1.11-3.98,2.61c0,1.4,1.15,2.16,4.84,2.83
			c5.67,1.05,7.8,2.8,7.8,6.3c0,3.95-3.6,6.3-8.63,6.3c-4.77,0-7.48-1.37-9.26-3.92l2.61-3.12c1.66,2.74,3.66,3.44,6.49,3.44
			c2.71,0,4.17-0.86,4.17-2.45c0-1.15-1.11-1.81-4.58-2.51c-5.86-1.18-8.08-2.96-8.08-6.46c0-3.72,3.15-6.62,8.59-6.62
			C251.03,578.07,253.7,579.31,255.83,582.11z"/>
		<path d="M271.69,594.27h-8.12l-1.72,5.12h-4.49l7.67-21.01h5.25l7.67,21.01h-4.55L271.69,594.27z M270.6,591.03l-2.01-5.92
			l-0.95-3.18h-0.06l-0.89,3.12l-2.01,5.98H270.6z"/>
		<path d="M296.55,595.86v3.53h-15.47v-21.01h4.39v17.47H296.55z"/>
		<path d="M325.39,595.86v3.53h-16.2v-21.01h15.76v3.53h-11.36v5.22h8.94v3.37h-8.94v5.35H325.39z"/>
		<path d="M339.85,599.4h-5.12l-7.67-21.01h4.65l4.42,13.37l1.21,4.14l1.18-4.11l4.46-13.4h4.52L339.85,599.4z"/>
		<path d="M366.88,595.86v3.53h-16.2v-21.01h15.76v3.53h-11.36v5.22h8.94v3.37h-8.94v5.35H366.88z"/>
		<path d="M388.88,599.4h-5.03l-7.35-12.35l-1.81-3.53h-0.03l0.13,3.72v12.16h-3.95v-21.01h5l7.35,12.32l1.81,3.56h0.06l-0.13-3.72
			v-12.16h3.95V599.4z"/>
		<path d="M410.97,581.92h-7.03v17.47h-4.39v-17.47h-7.07v-3.53h18.49V581.92z"/>
		<path d="M430.36,582.11l-3.02,2.96c-1.08-2.26-2.83-3.41-5.67-3.41c-2.64,0-3.98,1.11-3.98,2.61c0,1.4,1.15,2.16,4.84,2.83
			c5.67,1.05,7.8,2.8,7.8,6.3c0,3.95-3.6,6.3-8.63,6.3c-4.77,0-7.48-1.37-9.26-3.92l2.61-3.12c1.66,2.74,3.66,3.44,6.49,3.44
			c2.71,0,4.17-0.86,4.17-2.45c0-1.15-1.11-1.81-4.58-2.51c-5.86-1.18-8.08-2.96-8.08-6.46c0-3.72,3.15-6.62,8.59-6.62
			C425.55,578.07,428.23,579.31,430.36,582.11z"/>
	</g>
</g>
</svg>
